<?xml version="1.0" encoding="UTF-8"?>
<svg id="Layer_1" data-name="Layer 1" xmlns="http://www.w3.org/2000/svg" viewBox="0 0 256 256">
  <defs>
    <style>
      .cls-1 {
        stroke: #bfa56d;
        stroke-linecap: round;
        stroke-width: 1.89px;
      }

      .cls-1, .cls-2 {
        fill: none;
        stroke-miterlimit: 10;
      }

      .cls-2 {
        stroke: #e75224;
        stroke-width: 2.05px;
      }

      .cls-3 {
        fill: #164f3b;
        stroke-width: 0px;
      }
    </style>
  </defs>
  <path class="cls-3" d="m43.25,28.34c0-5.61,3.77-9.51,9.18-9.51,2.99,0,5.34.92,6.99,2.82.66.76,1.14,1.8,1.14,2.54,0,.89-.68,1.61-1.53,1.61-.53,0-1.06-.24-1.54-.9-1.06-1.82-2.7-2.79-5.03-2.79-3.43,0-5.82,2.57-5.82,6.22s2.39,6.19,5.82,6.19c2.33,0,3.95-.99,5.03-2.8.49-.65,1.01-.89,1.54-.89.85,0,1.53.71,1.53,1.6,0,.7-.46,1.73-1.08,2.46-1.66,1.92-4.03,2.92-7.05,2.92-5.41,0-9.18-3.89-9.18-9.48h0Z"/>
  <path class="cls-3" d="m77.49,36.05v-6.24h-8.85v6.24c0,.99-.66,1.68-1.65,1.68s-1.63-.7-1.63-1.68v-15.46c0-.99.66-1.67,1.63-1.67s1.65.68,1.65,1.67v6.1h8.85v-6.1c0-.99.66-1.67,1.63-1.67s1.63.68,1.63,1.67v15.46c0,.99-.66,1.68-1.63,1.68s-1.63-.7-1.63-1.68Z"/>
  <path class="cls-3" d="m86.56,36.05v-15.17c0-.99.66-1.67,1.63-1.67h6.27c3.61,0,6.34,2.36,6.34,5.8,0,2.51-1.42,4.41-3.56,5.28l3.25,4.76c.34.48.44.89.44,1.25,0,.76-.75,1.42-1.6,1.42-.6,0-1.06-.29-1.38-.75l-4.17-6.17h-3.96v5.24c0,.99-.66,1.68-1.65,1.68s-1.63-.7-1.63-1.68h.02Zm7.94-8.36c1.72,0,2.9-1.05,2.9-2.68s-1.18-2.68-2.9-2.68h-4.66v5.37h4.66Z"/>
  <path class="cls-3" d="m106.01,36.05v-15.46c0-.99.66-1.67,1.63-1.67s1.65.68,1.65,1.67v15.46c0,.99-.66,1.68-1.65,1.68s-1.63-.7-1.63-1.68Z"/>
  <path class="cls-3" d="m115.92,36.16c-1.09-.81-1.82-2.03-1.82-3.1,0-.9.66-1.61,1.54-1.61.44,0,.86.22,1.2.62,1.22,1.75,2.66,2.66,5.19,2.66,2.08,0,3.29-.86,3.29-2.32s-1.01-1.99-2.39-2.28l-3.33-.68c-3.08-.63-4.96-2.03-4.96-5.13,0-3.34,2.72-5.48,6.88-5.48,2.33,0,4.1.73,5.34,1.54,1.18.75,1.85,1.95,1.85,2.98,0,.9-.53,1.6-1.43,1.6-.61,0-1.08-.29-1.56-.75-.87-1.34-2.27-2.29-4.47-2.29-1.89,0-3.17.76-3.17,2.14,0,1.47,1.03,1.87,2.66,2.23l3.19.72c2.58.58,4.8,1.71,4.8,5.13s-2.75,5.7-6.9,5.7c-2.7,0-4.48-.63-5.91-1.67h0Z"/>
  <path class="cls-3" d="m138.25,36.05v-13.61h-4.53c-.94,0-1.63-.67-1.63-1.62s.7-1.61,1.63-1.61h12.34c.94,0,1.63.66,1.63,1.61s-.7,1.62-1.63,1.62h-4.53v13.61c0,.99-.66,1.68-1.65,1.68s-1.63-.7-1.63-1.68Z"/>
  <path class="cls-3" d="m151.61,36.02v-14.86c0-1.43.87-2.23,2.06-2.23,1.11,0,1.65.54,2.27,1.7l5.37,10.18,5.37-10.18c.65-1.19,1.19-1.7,2.28-1.7,1.19,0,2.06.8,2.06,2.23v14.86c0,1-.7,1.72-1.63,1.72s-1.62-.75-1.62-1.72v-11.13l-4.32,8.29c-.71,1.32-1.16,1.86-2.14,1.86s-1.44-.54-2.14-1.86l-4.3-8.29v11.13c0,.97-.7,1.72-1.63,1.72s-1.62-.72-1.62-1.72h-.01Z"/>
  <path class="cls-3" d="m174.74,36.23c0-.27.06-.66.23-1.08l5.63-13.75c.71-1.75,1.54-2.57,3.14-2.57s2.43.82,3.14,2.57l5.63,13.75c.18.42.24.81.24,1.08,0,.85-.73,1.54-1.57,1.54s-1.37-.38-1.62-1.05l-1.38-3.51h-8.88l-1.38,3.51c-.27.67-.8,1.05-1.62,1.05s-1.57-.7-1.57-1.54h.01Zm12.22-6.13l-3.2-8.14-3.22,8.14h6.42Z"/>
  <path class="cls-3" d="m197.49,36.16c-1.09-.81-1.82-2.03-1.82-3.1,0-.9.66-1.61,1.54-1.61.44,0,.86.22,1.2.62,1.22,1.75,2.66,2.66,5.19,2.66,2.08,0,3.29-.86,3.29-2.32s-1.01-1.99-2.39-2.28l-3.33-.68c-3.08-.63-4.96-2.03-4.96-5.13,0-3.34,2.72-5.48,6.88-5.48,2.33,0,4.1.73,5.34,1.54,1.18.75,1.85,1.95,1.85,2.98,0,.9-.53,1.6-1.43,1.6-.61,0-1.08-.29-1.56-.75-.87-1.34-2.27-2.29-4.47-2.29-1.89,0-3.17.76-3.17,2.14,0,1.47,1.03,1.87,2.66,2.23l3.19.72c2.58.58,4.8,1.71,4.8,5.13s-2.75,5.7-6.9,5.7c-2.7,0-4.48-.63-5.91-1.67h0Z"/>
  <path class="cls-3" d="m25.36,67.17v-13.61h-4.53c-.94,0-1.63-.67-1.63-1.62s.7-1.61,1.63-1.61h12.34c.94,0,1.63.66,1.63,1.61s-.7,1.62-1.63,1.62h-4.53v13.61c0,.99-.66,1.68-1.65,1.68s-1.63-.7-1.63-1.68Z"/>
  <path class="cls-3" d="m34.79,67.35c0-.27.06-.66.23-1.08l5.63-13.75c.71-1.75,1.54-2.57,3.14-2.57s2.43.82,3.14,2.57l5.63,13.75c.18.42.24.81.24,1.08,0,.85-.73,1.54-1.57,1.54s-1.37-.38-1.62-1.05l-1.38-3.51h-8.88l-1.38,3.51c-.27.67-.8,1.05-1.62,1.05s-1.57-.7-1.57-1.54h.01Zm12.22-6.13l-3.2-8.14-3.22,8.14h6.42Z"/>
  <path class="cls-3" d="m57.55,67.27c-1.09-.81-1.82-2.03-1.82-3.1,0-.9.66-1.61,1.54-1.61.44,0,.86.22,1.2.62,1.22,1.75,2.66,2.66,5.19,2.66,2.08,0,3.29-.86,3.29-2.32s-1.01-1.99-2.39-2.28l-3.33-.68c-3.08-.63-4.96-2.03-4.96-5.13,0-3.34,2.72-5.48,6.88-5.48,2.33,0,4.1.73,5.34,1.54,1.18.75,1.85,1.95,1.85,2.98,0,.9-.53,1.6-1.43,1.6-.61,0-1.08-.29-1.56-.75-.87-1.34-2.27-2.29-4.47-2.29-1.89,0-3.17.76-3.17,2.14,0,1.47,1.03,1.87,2.66,2.23l3.19.72c2.58.58,4.8,1.71,4.8,5.13s-2.75,5.7-6.9,5.7c-2.7,0-4.48-.63-5.91-1.67h0Z"/>
  <path class="cls-3" d="m79.88,67.17v-13.61h-4.53c-.94,0-1.63-.67-1.63-1.62s.7-1.61,1.63-1.61h12.34c.94,0,1.63.66,1.63,1.61s-.7,1.62-1.63,1.62h-4.53v13.61c0,.99-.66,1.68-1.65,1.68s-1.63-.7-1.63-1.68Z"/>
  <path class="cls-3" d="m93.24,67.17v-15.46c0-.99.66-1.67,1.63-1.67s1.65.68,1.65,1.67v15.46c0,.99-.66,1.68-1.65,1.68s-1.63-.7-1.63-1.68Z"/>
  <path class="cls-3" d="m102.33,67.18v-15.02c0-1.28.79-2.11,1.99-2.11.86,0,1.39.37,2.25,1.58l8.01,11.69v-11.61c0-.97.67-1.66,1.63-1.66s1.65.68,1.65,1.66v15c0,1.28-.81,2.13-1.95,2.13-.85,0-1.47-.41-2.24-1.48l-8.08-11.6v11.42c0,.97-.66,1.66-1.63,1.66s-1.63-.68-1.63-1.66Z"/>
  <path class="cls-3" d="m122.7,59.49c0-5.61,4-9.53,9.52-9.53,2.53,0,4.51.73,5.93,1.73,1.14.81,1.99,2.01,1.99,3.04,0,.95-.72,1.46-1.48,1.46-.58,0-1.03-.19-1.57-.68-1-1.35-2.57-2.33-4.96-2.33-3.57,0-6.04,2.62-6.04,6.29s2.43,6.25,6.13,6.25c3.03,0,4.93-1.56,5.12-4.27h-5.39c-.87,0-1.6-.66-1.6-1.53,0-1,.72-1.56,1.6-1.56h7.03c.96,0,1.72.56,1.72,1.8,0,5.63-3.47,8.79-8.56,8.79-5.61,0-9.42-3.87-9.42-9.46h-.02Z"/>
  <path class="cls-3" d="m153.59,67.13v-14.86c0-1.43.87-2.23,2.06-2.23,1.11,0,1.65.54,2.27,1.7l5.37,10.18,5.37-10.18c.65-1.19,1.19-1.7,2.28-1.7,1.19,0,2.06.8,2.06,2.23v14.86c0,1-.7,1.72-1.63,1.72s-1.62-.75-1.62-1.72v-11.13l-4.32,8.29c-.71,1.32-1.16,1.86-2.14,1.86s-1.44-.54-2.14-1.86l-4.3-8.29v11.13c0,.97-.7,1.72-1.63,1.72s-1.62-.72-1.62-1.72h0Z"/>
  <path class="cls-3" d="m178.8,66.88v-14.88c0-.99.66-1.67,1.63-1.67h9.86c.95,0,1.65.66,1.65,1.61s-.7,1.62-1.65,1.62h-8.22v4.25h7.36c.9,0,1.57.65,1.57,1.53s-.68,1.52-1.57,1.52h-7.36v4.47h8.27c.95,0,1.65.66,1.65,1.61s-.7,1.62-1.65,1.62h-9.91c-.97,0-1.63-.7-1.63-1.68Z"/>
  <path class="cls-3" d="m196.91,67.18v-15.02c0-1.28.79-2.11,1.99-2.11.86,0,1.39.37,2.25,1.58l8.01,11.69v-11.61c0-.97.67-1.66,1.63-1.66s1.65.68,1.65,1.66v15c0,1.28-.81,2.13-1.95,2.13-.85,0-1.47-.41-2.24-1.48l-8.08-11.6v11.42c0,.97-.66,1.66-1.63,1.66s-1.63-.68-1.63-1.66Z"/>
  <path class="cls-3" d="m218.04,61.46v-9.75c0-.97.68-1.67,1.66-1.67s1.62.7,1.62,1.67v9.42c0,2.7,1.66,4.52,4.29,4.52s4.3-1.82,4.3-4.52v-9.42c0-.97.66-1.67,1.62-1.67s1.66.7,1.66,1.67v9.75c0,4.47-2.96,7.48-7.58,7.48s-7.57-3.01-7.57-7.48Z"/>
  <path class="cls-2" d="m124.69,95.06v-17.12m-9.89,73.31h19.88m-19.88-47.61h19.88m-12.5,92.86v14.88m5.14-14.88v14.88m-2.57-14.88v14.88m0-45.85v30.34m22.37-68.5c0-11.27-6.94-20.75-16.4-23.62v-7.41h-11.63v7.3c-9.63,2.74-16.74,12.32-16.74,23.72s7.11,20.98,16.74,23.72v5.71h11.63v-5.82c9.45-2.87,16.4-12.35,16.4-23.62Zm15.89,0c0-11.27-11.88-20.75-28.04-23.62v-7.41h-19.88v7.3c-16.46,2.74-28.62,12.32-28.62,23.72s12.15,20.98,28.62,23.72v5.71h19.88v-5.82c16.16-2.87,28.04-12.35,28.04-23.62Zm-33.26,29.61h-10l-5.01,8.55h20.01l-5-8.55Z"/>
  <path class="cls-1" d="m86.83,106.62v49.02"/>
  <path class="cls-1" d="m103.55,131.13h-33.44"/>
  <path class="cls-1" d="m95.84,122.13l-18.01,18.01"/>
  <path class="cls-1" d="m95.84,140.14l-18.01-18.01"/>
  <path class="cls-1" d="m217.92,179.79v49.02"/>
  <path class="cls-1" d="m234.64,204.3h-33.44"/>
  <path class="cls-1" d="m226.92,195.29l-18.01,18.01"/>
  <path class="cls-1" d="m226.92,213.3l-18.01-18.01"/>
  <path class="cls-1" d="m16.44,152.72v49.03"/>
  <path class="cls-1" d="m33.16,177.23H-.28"/>
  <path class="cls-1" d="m25.45,168.23l-18.01,18.01"/>
  <path class="cls-1" d="m25.44,186.24l-18-18.01"/>
  <path class="cls-3" d="m84.74,237.93c0-.46.14-.96.38-1.67.82-2.08,1.37-3.29,1.49-4.48h-1.01c-.85,0-1.46-.58-1.46-1.41s.61-1.39,1.46-1.39h.49c-.22-.65-.38-1.39-.38-2.33,0-3.61,2.65-5.81,6.6-5.81,1.82,0,3.52.41,4.63,1.13,1.05.68,1.98,1.92,1.98,2.9,0,.79-.53,1.3-1.27,1.3-.47,0-1.01-.28-1.46-.65-1.06-1.04-2.04-1.68-3.79-1.68-2.14,0-3.49,1.15-3.49,2.87,0,.73.19,1.46.43,2.15l.04.11h4.71c.86,0,1.47.57,1.47,1.39s-.61,1.41-1.47,1.41h-4.3c-.11,1.41-.61,3.22-1.38,4.56h8.9c.94,0,1.57.63,1.57,1.57s-.63,1.54-1.57,1.54h-10.98c-1.01,0-1.6-.61-1.6-1.52h.01Z"/>
  <path class="cls-3" d="m110.83,238.07v-2.71h-8.09c-1,0-1.61-.65-1.61-1.44,0-.54.25-.99.53-1.32l8.5-10.46c.58-.71,1.14-1.2,2.01-1.2,1.14,0,1.75.8,1.75,1.86v9.64h1.57c.96,0,1.58.62,1.58,1.49,0,.81-.62,1.43-1.58,1.43h-1.57v2.71c0,.97-.65,1.66-1.56,1.66s-1.53-.68-1.53-1.66Zm0-5.63v-6.86l-5.48,6.86h5.48Z"/>
  <path class="cls-3" d="m120.57,237.54c-.41-.57-.71-1.25-.71-1.94,0-.87.58-1.48,1.47-1.48.54,0,.91.24,1.38.71.62,1.1,1.94,1.86,3.96,1.86s3.57-1.37,3.57-3.3-1.32-3.23-3.39-3.23c-1.15,0-2.15.35-2.98.84-.53.28-.96.42-1.52.42-1.03,0-1.56-.73-1.56-1.8,0-.2.03-.44.04-.61l.57-6.32c.08-.91.75-1.47,1.62-1.47h8.17c.92,0,1.56.63,1.56,1.56s-.62,1.54-1.56,1.54h-6.79l-.39,4.03c1.1-.67,2.29-.95,3.52-.95,3.58,0,5.98,2.28,5.98,5.96,0,3.94-2.99,6.47-7.2,6.47-2.6,0-4.76-.91-5.74-2.29Z"/>
  <path class="cls-3" d="m137.67,241.21v-14.37c0-.95.65-1.61,1.56-1.61s1.53.66,1.53,1.61v.38c1.06-1.35,2.66-2.08,4.6-2.08,3.9,0,6.82,2.95,6.82,7.34s-2.92,7.34-6.82,7.34c-1.98,0-3.49-.61-4.6-1.95v3.33c0,.94-.63,1.6-1.53,1.6s-1.56-.66-1.56-1.6h0Zm7.17-4.24c2.34,0,4.15-1.72,4.15-4.48s-1.81-4.48-4.15-4.48c-2.49,0-4.14,1.98-4.14,4.47s1.65,4.49,4.14,4.49Z"/>
  <path class="cls-3" d="m156.19,241.21v-14.37c0-.95.65-1.61,1.56-1.61s1.53.66,1.53,1.61v.38c1.06-1.35,2.66-2.08,4.6-2.08,3.9,0,6.82,2.95,6.82,7.34s-2.92,7.34-6.82,7.34c-1.98,0-3.49-.61-4.6-1.95v3.33c0,.94-.63,1.6-1.53,1.6s-1.56-.66-1.56-1.6h0Zm7.17-4.24c2.34,0,4.15-1.72,4.15-4.48s-1.81-4.48-4.15-4.48c-2.49,0-4.14,1.98-4.14,4.47s1.65,4.49,4.14,4.49Z"/>
</svg>