<svg width="106" height="26" viewBox="0 0 106 26" fill="none" xmlns="http://www.w3.org/2000/svg">
<path d="M16.3438 0.293797C16.2052 0.10991 15.9876 0 15.7551 0H15.1855C14.8613 0 14.5755 0.211365 14.4838 0.517844L8.26791 21.1428L1.94967 0.51573C1.85582 0.209251 1.57212 0 1.24789 0H0.731676C0.501301 0 0.281592 0.10991 0.142941 0.293797C0.00642268 0.479798 -0.0362393 0.718641 0.0320198 0.93846L7.57465 25.3088C7.66851 25.6132 7.95221 25.8225 8.27644 25.8225C8.59854 25.8225 8.88224 25.6132 8.9761 25.3067L16.4569 0.936347C16.523 0.716527 16.4825 0.477685 16.3438 0.293797Z" fill="#F0D8AB"/>
<path d="M19.6008 7.18213H20.117C20.5223 7.18213 20.8487 7.50763 20.8487 7.90711V24.8142C20.8487 25.2158 20.5202 25.5392 20.117 25.5392H19.6008C19.1976 25.5392 18.8691 25.2137 18.8691 24.8142V7.90711C18.8691 7.50763 19.1976 7.18213 19.6008 7.18213Z" fill="#F0D8AB"/>
<path d="M19.6008 2.67383H20.117C20.5223 2.67383 20.8487 2.99933 20.8487 3.39881V4.57611C20.8487 4.97771 20.5202 5.30109 20.117 5.30109H19.6008C19.1976 5.30109 18.8691 4.97559 18.8691 4.57611V3.39881C18.8691 2.99722 19.1976 2.67383 19.6008 2.67383Z" fill="#F0D8AB"/>
<path d="M41.2244 13.9099C41.4676 13.9099 41.6959 13.7894 41.8324 13.5886C41.9689 13.3878 41.9966 13.1342 41.9028 12.9101C40.2219 8.80118 37.2804 6.71924 33.1592 6.71924C29.4114 6.71924 26.4719 8.57079 24.8295 11.9442H23.4387C23.0334 11.9442 22.707 12.2697 22.707 12.6692V13.1828C22.707 13.5844 23.0355 13.9078 23.4387 13.9078H24.1234C23.8802 14.842 23.7928 15.5501 23.7928 16.4082C23.7928 21.6966 28.1806 25.9978 33.573 25.9978C36.9177 25.9978 39.471 24.6853 41.6041 21.8656C41.73 21.7008 41.7769 21.4915 41.7364 21.2907C41.6959 21.0878 41.5721 20.9124 41.3951 20.8067L40.8789 20.5002C40.5504 20.3058 40.128 20.3924 39.9062 20.701C38.2445 23.007 36.2906 24.0343 33.573 24.0343C29.3026 24.0343 25.8278 20.6144 25.8278 16.4082C25.8278 15.5289 25.9387 14.8293 26.2394 13.9078H41.2266L41.2244 13.9099ZM33.108 8.73566C35.7296 8.73566 37.7134 9.78826 39.1361 11.9463H27.1652C28.5453 9.81573 30.5398 8.73566 33.108 8.73566Z" fill="#F0D8AB"/>
<path d="M50.3304 9.14566C50.7357 9.14566 51.0621 8.82016 51.0621 8.41857V7.90706C51.0621 7.50547 50.7336 7.18208 50.3304 7.18208H46.0493V1.09477C46.0493 0.693178 45.7208 0.367676 45.3155 0.367676H44.7972C44.3919 0.367676 44.0655 0.693178 44.0655 1.09477V7.18208H42.7302C42.3249 7.18208 41.9985 7.50758 41.9985 7.90706V8.41857C41.9985 8.82016 42.327 9.14566 42.7302 9.14566H44.0655V15.6937C44.0655 20.0542 44.2298 21.0836 45.1662 22.5948C46.3458 24.4062 48.1184 25.425 50.2942 25.537C50.3069 25.537 50.3197 25.537 50.3325 25.537C50.5181 25.537 50.6994 25.4651 50.836 25.3383C50.981 25.2009 51.0642 25.0107 51.0642 24.812V24.3005C51.0642 23.9285 50.7784 23.6157 50.4051 23.5777C49.0506 23.4424 48.1803 23.0302 47.3142 22.1277C46.3351 21.0328 46.0514 20.0563 46.0514 15.6937V9.14566H50.3325H50.3304Z" fill="#F0D8AB"/>
<path d="M91.5502 7.08057C89.1675 7.08057 87.3373 7.76539 86.0788 9.12024V7.907C86.0788 7.50541 85.7503 7.18202 85.345 7.18202H84.8288C84.4257 7.18202 84.0972 7.50752 84.0972 7.907V24.8141C84.0972 25.2157 84.4257 25.5391 84.8288 25.5391H85.345C85.7503 25.5391 86.0788 25.2136 86.0788 24.8141V17.1289C86.0788 12.7853 86.3199 12.0096 87.2669 10.8154C88.2652 9.55565 89.5046 9.04415 91.5502 9.04415C91.9534 9.04415 92.2819 8.71864 92.2819 8.31916V7.80766C92.2819 7.40607 91.9534 7.08268 91.5502 7.08268V7.08057Z" fill="#F0D8AB"/>
<path d="M95.0316 7.18213H95.5478C95.9531 7.18213 96.2795 7.50763 96.2795 7.90711V24.8142C96.2795 25.2158 95.951 25.5392 95.5478 25.5392H95.0316C94.6263 25.5392 94.2979 25.2137 94.2979 24.8121V7.90922C94.2979 7.50763 94.6263 7.18213 95.0316 7.18213Z" fill="#F0D8AB"/>
<path d="M95.0295 2.67399H95.5478C95.9531 2.67399 96.2795 2.99949 96.2795 3.39897V4.57627C96.2795 4.97787 95.951 5.30125 95.5478 5.30125H95.0316C94.6263 5.30125 94.2979 4.97575 94.2979 4.57416V3.39686C94.2979 2.99526 94.6263 2.67188 95.0295 2.67188V2.67399Z" fill="#F0D8AB"/>
<path d="M99.8889 0.4375H100.405C100.81 0.4375 101.139 0.763002 101.139 1.1646V24.8142C101.139 25.2158 100.81 25.5392 100.407 25.5392H99.8889C99.4857 25.5392 99.1572 25.2137 99.1572 24.8142V1.1646C99.1572 0.763002 99.4857 0.439614 99.8889 0.439614V0.4375Z" fill="#F0D8AB"/>
<path d="M105.266 0.4375H104.748C104.344 0.4375 104.016 0.762085 104.016 1.16248V24.8142C104.016 25.2146 104.344 25.5392 104.748 25.5392H105.266C105.67 25.5392 105.998 25.2146 105.998 24.8142V1.16248C105.998 0.762085 105.67 0.4375 105.266 0.4375Z" fill="#F0D8AB"/>
<path d="M73.2293 25.199C73.3167 25.1737 73.4063 25.1504 73.4938 25.123C73.5727 25.0997 73.6516 25.0743 73.7284 25.0469C73.8671 25.0025 74.0036 24.956 74.1401 24.9074C74.1657 24.8989 74.1913 24.8883 74.2169 24.8799C75.8829 24.269 77.4464 23.3031 78.7817 21.98C78.8223 21.9398 78.8564 21.8954 78.8863 21.851C81.1239 19.5746 82.504 16.4697 82.504 13.0519C82.504 12.9103 82.472 12.775 82.4165 12.6524C82.4251 12.5425 82.4144 12.4326 82.3696 12.3269C82.2566 12.0564 81.9899 11.8788 81.6934 11.8788H73.161C72.7557 11.8788 72.4294 12.2043 72.4294 12.6038V13.1174C72.4294 13.519 72.7579 13.8424 73.161 13.8424H80.4882C80.2813 16.6155 79.0015 19.0969 77.0582 20.8766C77.0113 20.921 76.9601 20.9654 76.9132 21.0077C76.702 21.1937 76.4844 21.3712 76.2626 21.5403C76.1986 21.5889 76.1324 21.6354 76.0684 21.6819C75.8615 21.8299 75.6482 21.9736 75.4306 22.1089C75.3048 22.1871 75.1768 22.2611 75.0467 22.3329C74.891 22.4196 74.7331 22.5041 74.5731 22.5823C74.362 22.688 74.1487 22.7874 73.9311 22.8783C73.8522 22.91 73.7732 22.9396 73.6943 22.9713C73.4298 23.0727 73.1632 23.1699 72.8944 23.2503C72.8603 23.2608 72.8261 23.2693 72.792 23.2777C71.1687 23.7449 69.458 23.8273 67.8048 23.525C67.775 23.5187 67.7451 23.5145 67.7152 23.5102C67.4358 23.4574 67.1585 23.3877 66.8812 23.3116C66.8001 23.2883 66.7169 23.2672 66.638 23.2418C66.4183 23.1763 66.2007 23.0981 65.9853 23.0178C65.74 22.9248 65.4968 22.8233 65.26 22.7134C65.211 22.6901 65.1619 22.6711 65.115 22.6479C61.525 20.921 59.0421 17.275 59.0357 13.0646C59.0357 10.2196 60.1555 7.54374 62.1884 5.53154C64.2212 3.51723 66.9217 2.40757 69.7971 2.40757C72.6726 2.40757 75.3731 3.51723 77.4059 5.53154C77.792 5.91411 78.4191 5.91411 78.8073 5.53154C79.1934 5.14897 79.1934 4.52544 78.8073 4.14287C76.4524 1.80941 73.3402 0.505284 70.019 0.450329C69.9465 0.43342 69.8739 0.422852 69.7971 0.422852C64.7097 0.422852 60.3113 3.39253 58.2699 7.67267C58.2699 7.67478 58.2699 7.6769 58.2678 7.67901C58.1824 7.85867 58.0992 8.04256 58.0224 8.22644C58.016 8.24335 58.0096 8.25815 58.0032 8.27506C57.9307 8.44838 57.8625 8.6217 57.7985 8.79924C57.7921 8.81615 57.7857 8.83518 57.7793 8.85209C57.7153 9.02752 57.6577 9.20506 57.6022 9.38472C57.598 9.39741 57.5958 9.40797 57.5916 9.42066C57.5361 9.60666 57.4828 9.79477 57.4358 9.98289C57.4358 9.98289 57.4358 9.985 57.4358 9.98711C57.1884 10.9678 57.0562 11.9909 57.0562 13.0456C57.0562 13.0519 57.0562 13.0582 57.0562 13.0646C57.0562 16.4147 58.3616 19.5641 60.7379 21.944C60.7464 21.9546 60.7549 21.9631 60.7656 21.9736C62.4145 23.6075 64.4089 24.696 66.5143 25.2455C66.5506 25.254 66.5847 25.2646 66.621 25.273C66.7489 25.3047 66.8769 25.3343 67.007 25.3618C67.0988 25.3829 67.1926 25.4041 67.2843 25.4231C67.3547 25.4358 67.4273 25.4485 67.4977 25.4611C67.6448 25.4886 67.7942 25.514 67.9435 25.5351C67.952 25.5351 67.9584 25.5351 67.9669 25.5393C68.5514 25.6239 69.1508 25.6704 69.7587 25.6725C69.763 25.6725 69.7673 25.6725 69.7694 25.6725H69.7993C69.7993 25.6725 69.8078 25.6725 69.8099 25.6725C70.8146 25.6683 71.7895 25.5478 72.728 25.3259C72.7685 25.3153 72.8112 25.3068 72.8539 25.2963C72.9819 25.2646 73.1098 25.2308 73.2357 25.1948L73.2293 25.199Z" fill="#F0D8AB"/>
</svg>
