<?xml version="1.0" encoding="UTF-8"?><svg id="Layer_2" xmlns="http://www.w3.org/2000/svg" viewBox="0 0 26.76 26.4"><defs><style>.cls-1{stroke-width:0px;}</style></defs><g id="Layer_1-2"><path class="cls-1" d="m10.48,2.36c0-.31,0-.56,0-.8,0-.42.22-.66.62-.72,1.93-.28,3.86-.56,5.79-.82.64-.09.9.16.9.8,0,.68,0,1.37,0,2.05,0,.57-.23.79-.79.8-.53.01-1.06,0-1.66,0,.08.18.13.3.19.4,2,3.13,4,6.26,6.03,9.37.12.18.41.33.64.36,1.5.2,2.81.8,3.93,1.81.41.37.46.72.18,1.04-.26.29-.65.27-1.05-.08-3.66-3.08-8.97-1.21-9.8,3.46-.05.29-.05.6-.08.9-.04.5-.34.8-.84.8-4.6,0-9.2,0-13.8,0-.46,0-.73-.26-.73-.64,0-.41.29-.66.82-.66,4.22,0,8.43,0,12.65,0,.2,0,.39,0,.58,0,.57-3.63,2.6-5.82,6.17-6.63-1.05-1.63-2.08-3.24-3.11-4.85-1.03-1.6-2.07-3.19-3.07-4.8-.23-.36-.47-.5-.88-.47-.37.03-.75,0-1.2,0,.24,1.1.47,2.12.7,3.14.43,1.97.91,3.93,1.29,5.9.45,2.32-.7,4.19-2.97,4.83-.76.21-1.57.31-2.36.33-2.55.04-5.1.02-7.65.01-.18,0-.42.03-.53-.07-.19-.17-.4-.44-.39-.65,0-.19.28-.41.47-.54.12-.08.32-.03.49-.03,2.52,0,5.03,0,7.55,0,.56,0,1.13-.06,1.69-.17,1.88-.38,2.81-1.71,2.41-3.59-.62-2.95-1.31-5.88-1.96-8.82-.06-.27-.2-.34-.45-.34-.97.01-1.93,0-2.9,0-.57,0-.87-.24-.85-.67.01-.41.29-.62.85-.63.85,0,1.7,0,2.55,0,.18,0,.36,0,.59,0Zm1.32-.05h4.66v-.87c-1.18-.03-4.52.57-4.66.87Z"/><path class="cls-1" d="m16.31,21.17c0-2.87,2.33-5.22,5.2-5.23,2.89-.01,5.25,2.34,5.24,5.24,0,2.9-2.35,5.24-5.25,5.22-2.86-.01-5.19-2.36-5.19-5.23Zm9.13-.02c-.01-2.16-1.76-3.91-3.91-3.91-2.15,0-3.94,1.79-3.93,3.95.01,2.14,1.78,3.9,3.92,3.91,2.18,0,3.93-1.76,3.92-3.94Z"/><path class="cls-1" d="m21.54,23.04c-1.05,0-1.88-.82-1.88-1.86,0-1.04.83-1.87,1.87-1.88,1.04,0,1.88.83,1.88,1.86,0,1.05-.82,1.87-1.87,1.88Zm.12-2.52c-.08,0-.16,0-.24,0-.15.22-.39.41-.43.65-.06.33.18.56.54.56.36,0,.6-.22.55-.55-.03-.23-.27-.44-.42-.66Z"/></g></svg>