<?xml version="1.0" encoding="UTF-8"?><svg id="Layer_2" xmlns="http://www.w3.org/2000/svg" viewBox="0 0 23.32 27.23"><defs><style>.cls-1{stroke-width:0px;}</style></defs><g id="Layer_1-2"><path class="cls-1" d="m6.29,7.45c0-1.14.05-2.22-.01-3.3-.15-2.4,2.13-4.8,5.13-3.99.18.05.39.03.58-.02,2.62-.68,5.04,1.15,5.08,3.87.02,1.12,0,2.23,0,3.41.2,0,.37.02.55.02,1.58,0,3.17,0,4.75,0,.76,0,.96.19.96.93,0,5.98,0,11.97,0,17.95,0,.73-.18.9-.92.9-7.15,0-14.3,0-21.45,0-.76,0-.94-.19-.94-.94,0-5.97,0-11.93,0-17.9,0-.74.21-.94.96-.94,1.58,0,3.17,0,4.75,0h.58ZM1.33,25.91h20.67V8.79H1.33v17.11ZM12.87,7.42c0-1.33.06-2.64-.02-3.94-.05-.75-.52-1.34-1.18-1.75-.6.36-1.06.88-1.13,1.53-.13,1.38-.13,2.77-.18,4.17h2.52Zm2.84,0c0-1.34.06-2.64-.02-3.93-.08-1.17-1.23-2.14-2.42-2.15.53.71.91,1.46.93,2.33.03.83,0,1.66.01,2.49,0,.41,0,.82,0,1.25h1.5Zm-8.09-.01h1.51c0-.71,0-1.39,0-2.07-.02-1.4-.1-2.81.99-3.99-1.26.01-2.39.98-2.48,2.2-.09,1.27-.02,2.55-.02,3.86Z"/></g></svg>