<?xml version="1.0" encoding="UTF-8"?><svg id="Layer_2" xmlns="http://www.w3.org/2000/svg" viewBox="0 0 23.38 27"><defs><style>.cls-1{stroke-width:0px;}</style></defs><g id="Layer_1-2"><path class="cls-1" d="m3.68,3.67c0-.97,0-1.88,0-2.79C3.68.31,3.92,0,4.33,0c.41,0,.66.32.66.89,0,.91,0,1.82,0,2.76h13.37c0-.31,0-.62,0-.92,0-.63,0-1.27,0-1.9,0-.54.24-.83.65-.82.41,0,.63.3.64.85,0,.73,0,1.47,0,2.2,0,.18,0,.36,0,.63.24,0,.45-.01.66,0,.94.06,1.87.12,2.8.18.43.92.18,1.9.18,2.84.03,6.42.01,12.83.01,19.25,0,.94-.11,1.05-1.07,1.05-7.07,0-14.13,0-21.2,0-.9,0-1.05-.15-1.05-1.04C0,18.87,0,11.77,0,4.67c0-.82.17-.99.99-.99.88,0,1.76,0,2.69,0Zm18.32,5.03H1.34v16.95h20.66V8.7ZM1.32,7.3h20.66v-2.3H1.32v2.3Z"/><path class="cls-1" d="m9.39,14c-.81,0-1.51,0-2.22,0-.18,0-.37,0-.55,0-.38-.02-.59-.26-.59-.61,0-.36.2-.62.58-.63,1.43-.01,2.87-.02,4.3.01.19,0,.5.22.54.39.06.21-.04.55-.19.71-.43.44-.92.82-1.39,1.22-.19.16-.37.32-.63.54.17.03.24.04.31.06,1.12.18,1.82.78,1.95,1.71.18,1.21-.32,2.24-1.36,2.68-1.14.49-2.29.45-3.35-.2-.34-.21-.58-.62-.79-.98-.19-.32-.16-.71.22-.91.39-.21.71-.05.94.3.41.62,1.02.9,1.72.77.39-.07.84-.3,1.08-.6.51-.64.17-1.53-.62-1.74-.41-.11-.86-.04-1.28-.12-.25-.04-.58-.14-.68-.33-.08-.14.09-.5.26-.66.46-.46.97-.86,1.46-1.29.08-.07.15-.16.3-.32Z"/><path class="cls-1" d="m14.49,14.93c-.49.21-.93.45-1.41.6-.37.12-.76.06-.88-.4-.12-.44.13-.7.51-.84.68-.24,1.24-.62,1.65-1.23.09-.13.23-.25.37-.33.53-.34,1.07-.07,1.08.56.02,1.11,0,2.23,0,3.34,0,.96,0,1.93,0,2.89,0,.55-.22.83-.64.83-.44,0-.67-.29-.67-.85,0-1.38,0-2.76,0-4.14,0-.16,0-.32,0-.43Z"/></g></svg>